<?xml version="1.0" encoding="utf-8"?>
<!-- Generator: Adobe Illustrator 27.3.1, SVG Export Plug-In . SVG Version: 6.00 Build 0)  -->
<svg version="1.1" id="Layer_1" xmlns="http://www.w3.org/2000/svg" xmlns:xlink="http://www.w3.org/1999/xlink" x="0px" y="0px"
	 viewBox="0 0 1080 1080" style="enable-background:new 0 0 1080 1080;" xml:space="preserve">
<style type="text/css">
	.st0{fill:#DDBD7E;}
	.st1{fill:none;stroke:#EEEADE;stroke-width:1.3154;stroke-miterlimit:10;}
	.st2{fill:#23334D;}
	.st3{font-family:'Gotham-Bold';}
	.st4{font-size:57.2843px;}
	.st5{fill:none;stroke:#23334D;stroke-width:1.3146;stroke-miterlimit:10;}
</style>
<g>
	<g>
		<rect x="515.66" y="584.66" class="st0" width="14.6" height="18.74"/>
		<rect x="533.61" y="584.66" class="st0" width="14.6" height="18.74"/>
		<rect x="515.66" y="606.49" class="st0" width="14.6" height="18.74"/>
		<rect x="533.61" y="606.49" class="st0" width="14.6" height="18.74"/>
		<rect x="801.74" y="590.27" class="st0" width="11.73" height="15.41"/>
		<rect x="787.33" y="590.27" class="st0" width="11.73" height="15.41"/>
		<rect x="801.74" y="608.23" class="st0" width="11.73" height="15.41"/>
		<rect x="787.33" y="608.23" class="st0" width="11.73" height="15.41"/>
		<rect x="260.52" y="590.27" class="st0" width="11.73" height="15.41"/>
		<rect x="246.1" y="590.27" class="st0" width="11.73" height="15.41"/>
		<rect x="260.52" y="608.23" class="st0" width="11.73" height="15.41"/>
		<rect x="246.1" y="608.23" class="st0" width="11.73" height="15.41"/>
		<path class="st0" d="M882.68,638.96c-0.66-198.24-157.12-359.33-349.35-359.33c-191.88,0-348.11,160.5-349.33,358.24h0.01v13.92
			h699.13v-12.83H882.68z M207.53,638.96l54.98-109.12l60.21,109.12H207.53z M440.66,489.43c2.67,13.96,11.86,20.42,25.88,18.25
			c0.63-0.11,1.55,0.05,1.96,0.46c2.79,2.76,5.21,5.78,7.19,9.2l-5.05,4.64c-10.46,0.16-20.7,1.87-30.76,5.07
			c-0.88,0.28-2.08,0.12-2.97-0.22c-9.33-3.68-18.67-1.2-24.33,7.18c-0.07,0.11-0.14,0.21-0.21,0.32l-12.4-3.56
			c5-8.51,8.24-17.8,9.94-27.76c0.35-2.14,1.28-3.29,3-4.33c11.74-7.02,22.37-15.45,31.33-25.82c1.97-2.3,3.76-2.69,6.44-2.05
			c19.4,4.68,35.49,13.07,48.3,25.19l-18.56,17.02c-2.33-3.73-5.11-7.15-8.27-10.33c-0.89-0.89-1.55-2.18-1.95-3.4
			c-4.17-13.13-19.52-16.54-29.64-11.04C440.57,488.62,440.57,489.04,440.66,489.43z M463.51,528.52l-17,15.58l-10.25-2.93
			c1.63-1.54,2.94-3.38,3.86-5.48c0.88-2.01,2.13-2.87,4.04-3.42C450.54,530.37,456.99,529.11,463.51,528.52z M403.03,505.59
			c-1.79,8.43-4.86,16.25-9.32,23.39l-22.45-6.43c3.59-1.54,6.82-4.26,9.44-8.08c0.39-0.57,0.93-1.2,1.54-1.45
			c6.85-2.77,13.74-5.49,20.65-8.26C402.92,505.01,403.08,505.33,403.03,505.59z M379.67,638.96l1.85-1.74l97.78-91.69l13.22-12.41
			l2.34-2.18l5.13-4.8l13.51-12.69l4.71-4.42l8.44-7.91l7.48-7.01l6.77,6.49l8.54,8.22l4.57,4.4l13.78,13.24l4.88,4.69l2,1.91
			l13.76,13.22l94.64,90.93l1.8,1.74H379.67z M626.86,526.8c-10.4-3.14-20.98-4.89-31.83-4.82l-3.81-3.63
			c2.06-3.84,4.65-7.11,7.64-10.1c0.46-0.46,1.56-0.71,2.21-0.51c9.73,2.96,20.48-2.1,24.33-13.34c2.58-7.51,2.67-6.74-4.51-8.24
			c-10.54-2.18-20.55,3.52-23.6,12.99c-0.43,1.41-1.27,2.83-2.31,3.88c-3.23,3.33-6.14,6.9-8.45,10.82l-18.25-17.43
			c1.47-1.41,3.01-2.79,4.6-4.13c9.86-8.32,20.82-14.43,32.81-18.39c3.56-1.18,7.22-2.17,10.98-2.97c1.77-0.38,3.65-1.42,5.44,0.68
			c9.41,11.11,20.69,19.99,33.08,27.59c1.04,0.64,1.95,2.14,2.17,3.38c1.67,9.2,4.54,17.87,8.85,25.86l-12.27,3.79
			c-5.61-6.22-14.96-8.89-22.95-5.61C629.78,527.08,628.11,527.18,626.86,526.8z M629.7,539.7l-12.16,3.76l-15.81-15.1
			c7.66,0.54,15.3,2.04,22.91,4.4c0.85,0.26,1.87,1.12,2.17,1.95C627.45,536.5,628.43,538.21,629.7,539.7z M672.29,526.53
			c-3.22-5.72-5.59-11.86-7.3-18.34c-0.3-1.13-0.42-2.29-0.66-3.55c7.15,2.85,13.84,5.48,20.49,8.2c0.79,0.33,1.55,1.05,2.04,1.79
			c1.54,2.31,3.42,4.23,5.52,5.68L672.29,526.53z M740.6,638.96l0.89-1.74l55.34-108.28l60.59,108.28l0.97,1.74H740.6z
			 M793.09,492.87l-74.14,144.36l-0.89,1.74h-6.85l0.89-1.74l76.29-146.58l-71.44,22.09c-6.65-9.14-17.73-12-26.94-6.74
			c-1.16,0.67-3.02,0.85-4.27,0.43c-19.43-6.7-36.73-17-51.65-31.2c-1.84-1.75-3.55-3.64-5.69-5.86c1.29-0.22,1.87-0.38,2.46-0.42
			c18.02-1.1,35.17,2.22,51.36,10.25c0.72,0.37,1.46,0.83,2.04,1.41c10.08,10.29,24.96,8.9,32.94-3.13
			c-5.92-8.98-18.06-13.42-26.44-7.91c-5.68,3.75-9.68,2.68-14.53,0.13c-0.18-0.11-0.39-0.14-0.59-0.21
			c-6.99-2.06-13.97-4.13-21.3-6.28c4.1-8.06,9.68-15.1,16.66-21.06c0.47-0.41,1.8-0.28,2.47,0.07c11.02,5.85,23.87-0.17,29-11.67
			c-3.51-1.83-6.89-4.19-10.65-5.43c-10.6-3.5-20.73,2.37-23.31,9.96c-0.34,1-1.3,1.85-2.14,2.6c-7.33,6.53-13.38,14.11-17.76,22.9
			c-0.88,1.8-1.88,2.33-3.85,2.2c-12.71-0.83-25.25,0.41-37.49,4.14c-4.14,1.26-8.2,2.75-13.38,4.48c2.46-6.01,4.55-11.2,6.77-16.31
			c0.26-0.64,1.17-1.18,1.89-1.38c11.2-3.31,16.8-15.79,11.57-28.8c-0.28-0.68-1.5-1.51-2.18-1.45
			c-12.29,1.42-20.67,14.05-17.35,25.82c0.37,1.31,0.04,3.01-0.41,4.38c-2.01,6.02-4.39,11.94-6.18,18.04
			c-0.71,2.42-1.76,3.93-3.9,5.18c-7.55,4.38-14.34,9.45-20.38,15.2l-15.62-14.92c0.51-1.3,1.05-2.6,1.62-3.9
			c15.45,10.37,30.3-2.18,31.8-14.36c-8.12-4.15-16.27-4.98-25.17,0.57c9.49-17.23,21.18-31.39,34.9-44.04
			c4.26-3.92,8.18-6.09,13.62-2.93c0.53,0.3,1.21,0.38,1.8,0.51c6.92,1.5,13.84,2.98,20.86,4.48c-0.28,1.67-0.78,3.48-0.88,5.31
			c-0.57,11.44,10.31,21.66,22.06,20.65c0.76-0.07,1.93-1.28,2.02-2.09c1.18-8.79-0.39-16.66-8.08-22.3
			c-0.43-0.32-0.76-0.78-1.72-1.8c7.78-0.42,14.8-1.12,21.82-1.1c11.19,0.04,21.51-10.53,20.59-21.68c-0.05-0.62-0.76-1.55-1.33-1.7
			c-10.99-2.85-23.2,1.71-26.28,13.47c-0.76,2.94-2.08,3.84-4.72,4.17c-10.45,1.37-20.88,1.16-31.21-0.83
			c-5.18-1.01-10.27-2.35-15.93-3.67c0.83-0.87,1.04-1.24,1.35-1.42c8.02-4.69,16.02-9.39,24.08-14.03c0.87-0.5,2-0.78,2.98-0.75
			c11.95,0.28,22.93-13.59,16.2-29.45c-12-0.16-21.59,9.62-21.2,21.56c0.03,0.99-0.21,2.55-0.85,2.92
			c-4.94,2.77-10.02,5.34-15.28,8.07c4.54-12.27,2.58-22.27-5.42-27.99c-5.69,3.51-10.06,8.15-11.52,14.88
			c-1.74,7.93,0.68,14.57,6.84,19.31c-8.73,7.64-17.26,15.08-26.06,22.77c0.25-3.09,0.42-5.98,0.71-8.86
			c1.76-17.08,5.81-33.55,13.55-48.96c0.54-1.06,1.96-2.27,3.06-2.38c10.19-0.99,17.43-8.02,18.61-18.39
			c0.87-7.59,0.55-7.9-6.95-7.31c-11.67,0.91-19.3,9.39-19.01,21.02c0.03,0.97-0.33,2.05-0.79,2.94
			c-6.2,12.3-10.31,25.32-12.78,38.86c-0.24,1.24-0.53,2.46-0.87,4.04c-5.44-6.89-10.23-10.21-16.03-11.07
			c-0.83-0.13-2.29,0.41-2.62,1.05c-6.35,12.37,1.26,27.28,14.78,29.18c0.72,0.11,1.93,0.87,1.95,1.33
			c0.01,3.27,0.43,6.42-2.02,9.45c-9.81,12.12-17.52,25.44-23.39,39.78l-6.38-6.1c0-23.1,0-46.18,0.05-69.27
			c0.01-1.41,0.37-3.34,1.31-4.14c11.82-10,19.42-22.82,25.03-37.01c0.43-1.09,1.2-2.26,2.13-2.91
			c10.73-7.07,13.09-20.23,5.34-30.55c-0.5-0.66-1.99-1.2-2.69-0.92c-11.83,4.48-16.95,17.98-11.19,28.97
			c0.5,0.96,0.66,2.45,0.3,3.44c-4,10.54-9.47,20.24-17.16,28.58c-0.79,0.87-1.71,1.63-3.12,2.97c0-12.24-0.03-23.61,0.05-34.98
			c0-0.71,0.5-1.55,1.03-2.12c8.69-9.7,7.55-23.32-2.73-31.13c-0.6-0.45-2.01-0.62-2.62-0.22c-10.2,6.68-11.87,22.1-3.55,30.88
			c0.89,0.93,1.54,2.48,1.55,3.77c0.12,10.35,0.07,20.69,0.07,31.04c0,0.68-0.14,1.34-0.24,2.2c-0.55-0.3-0.87-0.39-1.06-0.59
			c-8.87-8.76-14.78-19.38-19.21-30.91c-0.28-0.74-0.05-1.87,0.32-2.59c5.81-11.63,1.04-24.6-10.9-29.32
			c-0.67-0.26-2.02-0.12-2.37,0.34c-7.83,10.67-5.96,24.03,3.76,30.51c1.43,0.95,2.79,2.48,3.43,4.05
			c5.52,13.41,12.55,25.77,23.75,35.3c1.84,1.58,2.56,3.15,2.55,5.57c-0.04,23.2-0.04,46.41-0.04,69.59l-6.27,5.77
			c-6.14-14.89-14.34-28.72-24.37-41.62c-1.45-1.87-1.09-5.35-1.01-8.06c0.01-0.53,2.73-0.95,4.21-1.41
			c0.7-0.22,1.41-0.39,2.09-0.66c11.17-4.18,15.89-18.72,9.47-29.7c-7.41,1.16-13.37,4.72-17.72,11.57
			c-0.25-0.99-0.39-1.43-0.5-1.91c-2.6-14.47-6.74-28.43-13.5-41.57c-0.37-0.71-0.58-1.59-0.57-2.38
			c0.18-11.38-6.07-19.39-17.33-20.81c-10.24-1.3-9.54-0.91-8.4,8.15c1.2,9.64,8.73,16.37,18.34,17.25c1.1,0.11,2.56,1.25,3.1,2.3
			c6.82,13.46,10.77,27.82,12.86,42.72c0.71,4.97,1.03,9.98,1.55,15.25c-9.01-7.86-17.54-15.3-26.07-22.76
			c11.03-12.11,8.79-27.74-5.34-34.32c-7.64,8.18-10.32,17.27-4.59,28.16c-5.43-2.83-10.36-5.31-15.18-7.98
			c-0.67-0.38-1.24-1.59-1.24-2.42c0.05-10.92-5.03-18.13-15.28-21.4c-6.06-1.95-6.61-1.6-7.6,4.61
			c-2.02,12.92,5.31,22.44,18.39,23.95c1.1,0.12,2.26,0.55,3.22,1.09c7.52,4.34,14.99,8.72,22.45,13.09
			c0.64,0.38,1.16,0.99,2.21,1.91c-4.34,1.1-8.03,2.17-11.79,2.97c-12.05,2.64-24.19,3.34-36.44,1.41
			c-1.63-0.25-2.77-0.64-3.25-2.64c-2.45-10.07-10.41-16.13-20.95-15.53c-8.57,0.49-7.77,0.3-6.1,7.87
			c2.31,10.44,11.11,16.67,20.85,16.26c6.64-0.26,13.33,0.75,20.76,1.22c-1.03,0.96-1.34,1.33-1.72,1.62
			c-7.7,5.59-9.37,13.44-8.22,22.26c0.12,0.82,1.21,2.09,1.95,2.18c9.14,1.05,19.59-6.2,21.49-15.29c0.74-3.43,0.12-7.15,0.12-11
			c0.37-0.09,1.04-0.24,1.72-0.39c8.35-1.89,16.71-3.65,25-5.74c2.05-0.51,3.44-0.43,5.09,0.93c13.13,11.06,24.45,23.68,33.59,38.24
			c1.75,2.77,3.38,5.61,5.07,8.41c-8.66-4.71-16.81-3.85-25.17,0.53c2.05,6.9,5.32,12.61,11.74,15.83
			c6.99,3.5,13.87,2.98,20.26-1.72c0.62,1.17,1.25,2.51,1.88,4.02l-15.91,14.59c-6.32-5.98-13.46-11.25-21.38-15.83
			c-1.01-0.59-1.85-1.91-2.26-3.06c-2.39-6.56-4.64-13.16-6.86-19.78c-0.34-1.01-0.62-2.23-0.38-3.22
			c2.87-11.33-1.74-20.56-12.57-25.1c-6.05-2.52-6.49-2.3-8.05,4.13c-2.69,11.16,2.3,20.77,12.79,24.69
			c0.66,0.22,1.58,0.54,1.8,1.06c2.29,5.27,4.44,10.62,6.88,16.49c-1.38-0.25-1.71-0.25-1.99-0.37c-15.93-6.57-32.5-9.2-49.68-8.14
			c-0.89,0.05-2.26-0.95-2.71-1.83c-4.67-9.03-10.82-16.85-18.46-23.54c-0.68-0.62-1.42-1.35-1.71-2.17
			c-4.19-12.09-22.82-15.71-33.71-3.67c5.9,10.99,16.97,15.92,26.88,11.41c3.15-1.41,4.9-0.91,6.88,1.41
			c1.83,2.16,4.02,4.01,5.69,6.26c3.06,4.05,5.85,8.3,8.81,12.54c-0.87,0.51-1.1,0.74-1.38,0.8c-9.81,1.81-19.3,4.65-28.32,8.95
			c-0.57,0.26-1.63,0.01-2.18-0.37c-11.29-8.06-23.48-6.18-31.38,4.9c7.56,12.02,23.04,13.54,32.9,3.3
			c0.71-0.74,1.64-1.29,2.56-1.74c13.16-6.44,27.07-9.83,41.7-10.19c3.68-0.09,7.38-0.01,11.77-0.01c-0.87,1.24-1.06,1.62-1.33,1.89
			c-15.93,16.81-35.09,28.54-56.88,36.05c-0.85,0.3-2.17,0.21-2.89-0.28c-7.68-5.14-18.92-4.11-26.21,4.68
			c-1.93,2.31-3.15,3.77-3.62,4.88l-83.42-23.87l84.67,145.12l1.01,1.74h-7.11l-84.66-145.74l-61.68,121.84
			c12.52-180.39,158.54-323.21,336.25-323.21c180.48,0,328.27,147.29,336.75,331.62L793.09,492.87z"/>
		<polygon class="st0" points="558.19,538.91 556.68,537.49 552,533.07 546.03,527.44 541.25,522.94 537.99,519.85 534.3,516.38 
			530.02,520.38 526.53,523.65 521.63,528.23 516.17,533.35 511.45,537.76 508.58,540.44 494.35,553.75 416.33,626.75 
			518.22,542.14 523.26,537.96 525.07,536.45 534.31,528.78 542.66,535.76 544.59,537.36 550,541.88 648.95,624.51 574.17,553.99 		
			"/>
	</g>
	<text transform="matrix(1 0 0 1 195.4211 721.7242)"><tspan x="0" y="0" class="st2 st3 st4">NEW BHARATH CRAFT </tspan><tspan x="204.9" y="68.74" class="st2 st3 st4">INTERIOR</tspan></text>
	<line class="st5" x1="186.2" y1="770.57" x2="384.67" y2="770.57"/>
	<line class="st5" x1="704.97" y1="770.57" x2="886.19" y2="770.57"/>
</g>
</svg>
